<mxfile host="app.diagrams.net" modified="2022-05-20T02:10:46.018Z" agent="5.0 (Macintosh; Intel Mac OS X 10_15_7) AppleWebKit/537.36 (KHTML, like Gecko) Chrome/101.0.4951.64 Safari/537.36" etag="TQ5uEBZHTx3TcleTI8En" version="18.0.5" type="github">
  <diagram id="T3OpZRZjfwvpB_8s5n5t" name="Page-1">
    <mxGraphModel dx="1097" dy="611" grid="1" gridSize="10" guides="1" tooltips="1" connect="1" arrows="1" fold="1" page="1" pageScale="1" pageWidth="827" pageHeight="1169" math="0" shadow="0">
      <root>
        <mxCell id="0" />
        <mxCell id="1" parent="0" />
        <mxCell id="cZAE0hPcL5Q8n0yuXAkU-12" value="" style="edgeStyle=orthogonalEdgeStyle;rounded=0;orthogonalLoop=1;jettySize=auto;html=1;" edge="1" parent="1" source="cZAE0hPcL5Q8n0yuXAkU-1" target="cZAE0hPcL5Q8n0yuXAkU-11">
          <mxGeometry relative="1" as="geometry" />
        </mxCell>
        <mxCell id="cZAE0hPcL5Q8n0yuXAkU-22" value="" style="edgeStyle=orthogonalEdgeStyle;rounded=0;orthogonalLoop=1;jettySize=auto;html=1;" edge="1" parent="1" source="cZAE0hPcL5Q8n0yuXAkU-1" target="cZAE0hPcL5Q8n0yuXAkU-21">
          <mxGeometry relative="1" as="geometry" />
        </mxCell>
        <mxCell id="cZAE0hPcL5Q8n0yuXAkU-1" value="处理参数" style="rounded=0;whiteSpace=wrap;html=1;" vertex="1" parent="1">
          <mxGeometry x="230" y="240" width="120" height="60" as="geometry" />
        </mxCell>
        <mxCell id="cZAE0hPcL5Q8n0yuXAkU-3" value="&lt;div&gt;python3 reg_slave.py reg --net $NET_TYPE $API_TOKEN $PROJECT_ID&lt;/div&gt;" style="text;html=1;align=center;verticalAlign=middle;resizable=0;points=[];autosize=1;strokeColor=none;fillColor=none;" vertex="1" parent="1">
          <mxGeometry x="85" y="170" width="410" height="20" as="geometry" />
        </mxCell>
        <mxCell id="cZAE0hPcL5Q8n0yuXAkU-9" style="edgeStyle=orthogonalEdgeStyle;rounded=0;orthogonalLoop=1;jettySize=auto;html=1;entryX=0;entryY=0.5;entryDx=0;entryDy=0;" edge="1" parent="1" source="cZAE0hPcL5Q8n0yuXAkU-8" target="cZAE0hPcL5Q8n0yuXAkU-1">
          <mxGeometry relative="1" as="geometry" />
        </mxCell>
        <mxCell id="cZAE0hPcL5Q8n0yuXAkU-8" value="&lt;span style=&quot;&quot;&gt;reg_slave.py&lt;/span&gt;&lt;br style=&quot;&quot;&gt;&lt;span style=&quot;&quot;&gt;执行机注册脚本&lt;/span&gt;" style="shape=note;whiteSpace=wrap;html=1;backgroundOutline=1;darkOpacity=0.05;" vertex="1" parent="1">
          <mxGeometry x="50" y="220" width="100" height="100" as="geometry" />
        </mxCell>
        <mxCell id="cZAE0hPcL5Q8n0yuXAkU-10" value="qci_daemon.py&lt;br&gt;守护进程启动脚本" style="shape=note;whiteSpace=wrap;html=1;backgroundOutline=1;darkOpacity=0.05;" vertex="1" parent="1">
          <mxGeometry x="50" y="680" width="100" height="100" as="geometry" />
        </mxCell>
        <mxCell id="cZAE0hPcL5Q8n0yuXAkU-14" value="" style="edgeStyle=orthogonalEdgeStyle;rounded=0;orthogonalLoop=1;jettySize=auto;html=1;" edge="1" parent="1" source="cZAE0hPcL5Q8n0yuXAkU-11" target="cZAE0hPcL5Q8n0yuXAkU-13">
          <mxGeometry relative="1" as="geometry" />
        </mxCell>
        <mxCell id="cZAE0hPcL5Q8n0yuXAkU-11" value="&lt;span style=&quot;&quot;&gt;获取本机IP&lt;/span&gt;" style="whiteSpace=wrap;html=1;rounded=0;" vertex="1" parent="1">
          <mxGeometry x="430" y="240" width="120" height="60" as="geometry" />
        </mxCell>
        <mxCell id="cZAE0hPcL5Q8n0yuXAkU-16" value="" style="edgeStyle=orthogonalEdgeStyle;rounded=0;orthogonalLoop=1;jettySize=auto;html=1;" edge="1" parent="1" source="cZAE0hPcL5Q8n0yuXAkU-13" target="cZAE0hPcL5Q8n0yuXAkU-15">
          <mxGeometry relative="1" as="geometry" />
        </mxCell>
        <mxCell id="cZAE0hPcL5Q8n0yuXAkU-13" value="编译机注册" style="whiteSpace=wrap;html=1;rounded=0;" vertex="1" parent="1">
          <mxGeometry x="630" y="240" width="120" height="60" as="geometry" />
        </mxCell>
        <mxCell id="cZAE0hPcL5Q8n0yuXAkU-15" value="准备Daemon环境" style="whiteSpace=wrap;html=1;rounded=0;" vertex="1" parent="1">
          <mxGeometry x="830" y="240" width="120" height="60" as="geometry" />
        </mxCell>
        <mxCell id="cZAE0hPcL5Q8n0yuXAkU-24" value="" style="edgeStyle=orthogonalEdgeStyle;rounded=0;orthogonalLoop=1;jettySize=auto;html=1;" edge="1" parent="1" source="cZAE0hPcL5Q8n0yuXAkU-21" target="cZAE0hPcL5Q8n0yuXAkU-23">
          <mxGeometry relative="1" as="geometry" />
        </mxCell>
        <mxCell id="cZAE0hPcL5Q8n0yuXAkU-21" value="定义参数help内容" style="ellipse;whiteSpace=wrap;html=1;rounded=0;" vertex="1" parent="1">
          <mxGeometry x="230" y="380" width="120" height="60" as="geometry" />
        </mxCell>
        <mxCell id="cZAE0hPcL5Q8n0yuXAkU-23" value="解析参数&lt;br&gt;argparse包" style="ellipse;whiteSpace=wrap;html=1;rounded=0;" vertex="1" parent="1">
          <mxGeometry x="230" y="520" width="120" height="60" as="geometry" />
        </mxCell>
      </root>
    </mxGraphModel>
  </diagram>
</mxfile>
